<svg viewBox="0 0 64 64" xmlns="http://www.w3.org/2000/svg"><circle cx="53" cy="17" r="2" stroke-linecap="round" fill="none" stroke="#671d42" stroke-linejoin="round" stroke-width="2px" class="stroke-000000"></circle><circle cx="45.5" cy="23.5" r="1.069" fill="#671d42" class="fill-000000"></circle><circle cx="16.5" cy="14.5" r="1.069" fill="#671d42" class="fill-000000"></circle><path d="M53.934 54H61V43.485L54 40l-4.524-9H39.173M20.673 54h23.516M10.748 24H3v30h7.894M39 49V24h-6.839M43 44h2" stroke-linecap="round" fill="none" stroke="#671d42" stroke-linejoin="round" stroke-width="2px" class="stroke-000000"></path><circle cx="49.08" cy="54.75" r="4.75" stroke-linecap="round" fill="none" stroke="#671d42" stroke-linejoin="round" stroke-width="2px" class="stroke-000000"></circle><circle cx="15.741" cy="54.75" r="4.75" stroke-linecap="round" fill="none" stroke="#671d42" stroke-linejoin="round" stroke-width="2px" class="stroke-000000"></circle><path d="M26 37h-3v6h3M26 40h-3M32 37h-3v6h3M32 40h-3M13 37h-3v6M13 40h-3M16 43v-6h2.644A1.356 1.356 0 0 1 20 38.356v.288A1.356 1.356 0 0 1 18.644 40H17l3 3M31.556 22.75l-3.933-4.916a2.074 2.074 0 0 0-2.598-.584 2.001 2.001 0 0 0-.592 3l1.4 1.75H12.995a2 2 0 0 0-2 2h0a2 2 0 0 0 2 2h12.839l-1.317 1.646a2.113 2.113 0 0 0 .26 2.94 2 2 0 0 0 2.78-.337l4-5a2 2 0 0 0 0-2.498ZM33 7l-3 3M30 7l3 3" stroke-linecap="round" fill="none" stroke="#671d42" stroke-linejoin="round" stroke-width="2px" class="stroke-000000"></path><path d="M39 40h15M3 50h58" fill="none" stroke="#671d42" stroke-linejoin="round" stroke-width="2px" class="stroke-000000"></path></svg>