<svg viewBox="0 0 64 64" xmlns="http://www.w3.org/2000/svg"><path d="m52.866 34.434-.185-.155a3.151 3.151 0 0 0-1.681-.71V23h.5c.827 0 1.5-.673 1.5-1.5v-6c0-.827-.673-1.5-1.5-1.5h-4.978c.105-.077.21-.151.312-.24 2.183-1.894 2.154-3.699 2.152-3.775a.5.5 0 0 0-.29-.44c-.071-.032-1.75-.79-3.916-.465-1.395.21-2.538.859-3.287 1.622A3.474 3.474 0 0 0 38.5 9h-1a3.472 3.472 0 0 0-2.993 1.701c-.75-.762-1.893-1.41-3.287-1.62-2.166-.325-3.846.432-3.915.465a.5.5 0 0 0-.291.439c-.002.076-.03 1.88 2.153 3.776.101.088.206.163.311.239H24.5c-.827 0-1.5.673-1.5 1.5v6c0 .827.673 1.5 1.5 1.5h.5v12.97h-2.006c-1.335 0-2.982 1.712-3.994 2.943V37.5c0-1.379-1.121-2.5-2.5-2.5h-4a2.503 2.503 0 0 0-2.5 2.5v15c0 1.378 1.121 2.5 2.5 2.5h4c1.379 0 2.5-1.122 2.5-2.5v-.994c.862.33 1.781.509 2.7.512 1.33.006 3.74.015 6.144.015 1.918 0 3.83-.006 5.183-.022l.62-.006c3.816-.032 6.829-.058 11.976-4.857 3.224-3.004 5.957-6.172 7.683-8.3 1.079-1.333.882-3.313-.44-4.414ZM50 33.614c-.571.122-1.115.4-1.562.84L42.795 40H42V23h8v10.614ZM42 15v7h-8v-7h8Zm-7 22.37V23h6v17h-5.693c.097-.399.123-.838.123-1.378 0-.51-.166-.919-.43-1.251ZM51.5 15a.5.5 0 0 1 .5.5v6a.5.5 0 0 1-.5.5H43v-6.998L51.5 15Zm-6.571-4.93c.326-.05.64-.07.935-.07.924 0 1.677.197 2.083.331-.1.506-.464 1.542-1.768 2.674-.825.716-1.81.955-2.675.995h-.588a6.727 6.727 0 0 1-.343-.025c-.567-.058-1.015-.52-1.021-1.049v-.362c0-.791 1.346-2.19 3.377-2.494ZM37.5 10h1c1.043 0 1.95.637 2.323 1.595-.17.33-.271.66-.271.969v.368c.004.39.122.756.322 1.068h-5.748c.2-.313.318-.68.322-1.074v-.362c0-.308-.1-.638-.27-.969A2.48 2.48 0 0 1 37.5 10Zm-7.678 3.006c-1.307-1.135-1.67-2.172-1.77-2.674a6.653 6.653 0 0 1 3.02-.262c2.03.305 3.376 1.703 3.376 2.494v.357c-.006.533-.454.996-1.02 1.054h-.001a6.718 6.718 0 0 1-.343.025h-.588c-.865-.04-1.85-.279-2.674-.994ZM24 21.5v-6a.5.5 0 0 1 .5-.5l8.5.002V22h-8.5a.5.5 0 0 1-.5-.5Zm2 1.5h8v13.606c-1.273-.622-2.952-.636-3.065-.636H26V23Zm-8 29.5c0 .827-.673 1.5-1.5 1.5h-4c-.827 0-1.5-.673-1.5-1.5v-15c0-.827.673-1.5 1.5-1.5h4c.827 0 1.5.673 1.5 1.5v15Zm34.528-14.283c-1.705 2.104-4.406 5.235-7.587 8.2-4.863 4.533-7.705 4.557-11.301 4.588l-.624.006c-3.041.038-8.924.017-11.312.008a6.569 6.569 0 0 1-2.704-.6v-9.864c1.024-1.437 2.933-3.585 3.994-3.585h7.94c.036 0 3.496.045 3.496 1.652 0 1.867 0 2.062-6.095 5.609a.5.5 0 0 0 .504.864c3.613-2.103 5.248-3.118 5.988-4.095H43a.5.5 0 0 0 .35-.144l5.79-5.69a2.159 2.159 0 0 1 2.9-.12l.185.156a2.165 2.165 0 0 1 .303 3.015Z" fill="#671d42" class="fill-000000"></path></svg>